<svg width="72" height="27" viewBox="0 0 72 27" fill="none" xmlns="http://www.w3.org/2000/svg">
<path d="M0 20.6747V0.0664062H3.82725V17.4363H14.6024V20.6747H0Z" fill="#303030"/>
<path d="M24.1927 20.8808C22.5833 20.8808 21.1505 20.5373 19.8944 19.8504C18.6382 19.1438 17.6471 18.1821 16.9209 16.9652C16.1947 15.7483 15.8316 14.3646 15.8316 12.8141C15.8316 11.244 16.1947 9.86025 16.9209 8.66301C17.6471 7.44614 18.6382 6.49423 19.8944 5.80729C21.1505 5.12035 22.5833 4.77687 24.1927 4.77687C25.8217 4.77687 27.2643 5.12035 28.5204 5.80729C29.7962 6.49423 30.7873 7.43633 31.4939 8.63357C32.2201 9.83081 32.5832 11.2243 32.5832 12.8141C32.5832 14.3646 32.2201 15.7483 31.4939 16.9652C30.7873 18.1821 29.7962 19.1438 28.5204 19.8504C27.2643 20.5373 25.8217 20.8808 24.1927 20.8808ZM24.1927 17.7307C25.0955 17.7307 25.9002 17.5344 26.6068 17.1419C27.3134 16.7493 27.8629 16.1801 28.2554 15.4343C28.6676 14.6885 28.8737 13.8151 28.8737 12.8141C28.8737 11.7935 28.6676 10.9201 28.2554 10.1939C27.8629 9.44809 27.3134 8.87891 26.6068 8.48637C25.9002 8.09383 25.1053 7.89756 24.2221 7.89756C23.3193 7.89756 22.5146 8.09383 21.808 8.48637C21.121 8.87891 20.5715 9.44809 20.1593 10.1939C19.7472 10.9201 19.5411 11.7935 19.5411 12.8141C19.5411 13.8151 19.7472 14.6885 20.1593 15.4343C20.5715 16.1801 21.121 16.7493 21.808 17.1419C22.5146 17.5344 23.3095 17.7307 24.1927 17.7307Z" fill="#303030"/>
<path d="M43.2268 26.5922C41.7744 26.5922 40.3515 26.396 38.958 26.0034C37.5841 25.6305 36.4555 25.081 35.5723 24.3548L37.221 21.5874C37.9079 22.1565 38.7715 22.608 39.8117 22.9416C40.8716 23.2949 41.9413 23.4715 43.0207 23.4715C44.7479 23.4715 46.0138 23.0692 46.8186 22.2645C47.6233 21.4794 48.0256 20.292 48.0256 18.7022V15.9054L48.32 12.3431L48.2023 8.78077V4.95352H51.7057V18.29C51.7057 21.1359 50.9795 23.2262 49.5271 24.5608C48.0747 25.9151 45.9746 26.5922 43.2268 26.5922ZM42.7558 19.9681C41.2641 19.9681 39.9099 19.6541 38.693 19.026C37.4958 18.3783 36.5438 17.4853 35.8373 16.347C35.1503 15.2086 34.8069 13.874 34.8069 12.3431C34.8069 10.8318 35.1503 9.50697 35.8373 8.36861C36.5438 7.23024 37.4958 6.34703 38.693 5.71897C39.9099 5.09091 41.2641 4.77687 42.7558 4.77687C44.0904 4.77687 45.2877 5.04184 46.3475 5.57177C47.4074 6.10169 48.2513 6.92602 48.8794 8.04476C49.5271 9.1635 49.8509 10.5963 49.8509 12.3431C49.8509 14.0899 49.5271 15.5324 48.8794 16.6708C48.2513 17.7895 47.4074 18.6237 46.3475 19.1732C45.2877 19.7032 44.0904 19.9681 42.7558 19.9681ZM43.3151 16.8474C44.2376 16.8474 45.0619 16.661 45.7881 16.2881C46.5143 15.8955 47.0737 15.3656 47.4662 14.6983C47.8784 14.0114 48.0845 13.2263 48.0845 12.3431C48.0845 11.4598 47.8784 10.6846 47.4662 10.0173C47.0737 9.33033 46.5143 8.81021 45.7881 8.45693C45.0619 8.08401 44.2376 7.89756 43.3151 7.89756C42.3927 7.89756 41.5585 8.08401 40.8127 8.45693C40.0865 8.81021 39.5173 9.33033 39.1052 10.0173C38.7126 10.6846 38.5163 11.4598 38.5163 12.3431C38.5163 13.2263 38.7126 14.0114 39.1052 14.6983C39.5173 15.3656 40.0865 15.8955 40.8127 16.2881C41.5585 16.661 42.3927 16.8474 43.3151 16.8474Z" fill="#303030"/>
<path d="M63.6095 20.8808C62.0001 20.8808 60.5673 20.5373 59.3112 19.8504C58.0551 19.1438 57.0639 18.1821 56.3377 16.9652C55.6115 15.7483 55.2484 14.3646 55.2484 12.8141C55.2484 11.244 55.6115 9.86025 56.3377 8.66301C57.0639 7.44614 58.0551 6.49423 59.3112 5.80729C60.5673 5.12035 62.0001 4.77687 63.6095 4.77687C65.2385 4.77687 66.6811 5.12035 67.9372 5.80729C69.213 6.49423 70.2041 7.43633 70.9107 8.63357C71.6369 9.83081 72 11.2243 72 12.8141C72 14.3646 71.6369 15.7483 70.9107 16.9652C70.2041 18.1821 69.213 19.1438 67.9372 19.8504C66.6811 20.5373 65.2385 20.8808 63.6095 20.8808ZM63.6095 17.7307C64.5123 17.7307 65.317 17.5344 66.0236 17.1419C66.7302 16.7493 67.2797 16.1801 67.6723 15.4343C68.0844 14.6885 68.2905 13.8151 68.2905 12.8141C68.2905 11.7935 68.0844 10.9201 67.6723 10.1939C67.2797 9.44809 66.7302 8.87891 66.0236 8.48637C65.317 8.09383 64.5221 7.89756 63.6389 7.89756C62.7361 7.89756 61.9314 8.09383 61.2248 8.48637C60.5379 8.87891 59.9883 9.44809 59.5761 10.1939C59.164 10.9201 58.9579 11.7935 58.9579 12.8141C58.9579 13.8151 59.164 14.6885 59.5761 15.4343C59.9883 16.1801 60.5379 16.7493 61.2248 17.1419C61.9314 17.5344 62.7263 17.7307 63.6095 17.7307Z" fill="#303030"/>
</svg>
